<svg height="55" viewBox="0 0 55 55" fill="none" xmlns="http://www.w3.org/2000/svg"><path d="M27.6608 17.2308L17.2379 27.6608L1 11.423L11.4301 1L27.6608 17.2308Z" stroke="#4B4B4B" stroke-width="2" stroke-linecap="round" stroke-linejoin="round"></path><path d="M53.7506 43.3271L43.3276 53.7501L27.125 37.5475L37.548 27.1245L42.6078 32.1772L48.2533 37.8227L53.7506 43.3271Z" stroke="#4B4B4B" stroke-width="2" stroke-linecap="round" stroke-linejoin="round"></path><path d="M42.6056 32.1772L37.3906 37.3852" stroke="#4B4B4B" stroke-width="2" stroke-linecap="round" stroke-linejoin="round"></path><path d="M48.2519 37.8228L43.0369 43.0307" stroke="#4B4B4B" stroke-width="2" stroke-linecap="round" stroke-linejoin="round"></path><path d="M22.5783 12.1499L17.3633 17.3579" stroke="#4B4B4B" stroke-width="2" stroke-linecap="round" stroke-linejoin="round"></path><path d="M16.9338 6.50439L11.7188 11.7124" stroke="#4B4B4B" stroke-width="2" stroke-linecap="round" stroke-linejoin="round"></path><path d="M50.2283 14.4434L46.3117 18.36L36.418 8.47334L40.3416 4.54972C43.0726 1.81871 47.4972 1.81871 50.2283 4.54972C52.9593 7.28073 52.9593 11.7124 50.2283 14.4434Z" stroke="#4B4B4B" stroke-width="2" stroke-linecap="round" stroke-linejoin="round"></path><path d="M46.3105 18.3598L15.8742 48.7961L5.98047 38.9094L17.2362 27.6608L27.6592 17.2307L36.4167 8.47314L46.3105 18.3598Z" stroke="#4B4B4B" stroke-width="2" stroke-linecap="round" stroke-linejoin="round"></path><path d="M15.8746 48.7961L2.84766 51.9011L5.98091 38.9094L15.8746 48.7961Z" stroke="#4B4B4B" stroke-width="2" stroke-linecap="round" stroke-linejoin="round"></path></svg>