<svg width="32" height="32" viewBox="0 0 32 32" fill="none" xmlns="http://www.w3.org/2000/svg">
<path fill-rule="evenodd" clip-rule="evenodd" d="M22.3843 25.2128C20.0472 26.9632 17.1447 28 14 28C6.26801 28 0 21.732 0 14C0 6.26801 6.26801 0 14 0C21.732 0 28 6.26801 28 14C28 17.1447 26.9632 20.0472 25.2128 22.3843L31.4142 28.5858L28.5858 31.4142L22.3843 25.2128ZM11.1716 16.8284L8.34315 19.6569C5.21895 16.5327 5.21895 11.4673 8.34315 8.34315C11.4673 5.21895 16.5327 5.21895 19.6569 8.34315L16.8284 11.1716C15.2663 9.60948 12.7337 9.60948 11.1716 11.1716C9.60948 12.7337 9.60948 15.2663 11.1716 16.8284Z" fill="#FF6127"/>
</svg>
