<svg width="32" height="32" viewBox="0 0 32 32" fill="none" xmlns="http://www.w3.org/2000/svg">
<path fillRule="evenodd" clipRule="evenodd" d="M20 32L24 28V20L27.3137 16.6863C30.3143 13.6857 32 9.61605 32 5.37258V0H26.6274C22.384 0 18.3143 1.68571 15.3137 4.68629L12 8H4L0 12L20 32ZM21 14C22.6569 14 24 12.6569 24 11C24 9.34315 22.6569 8 21 8C19.3431 8 18 9.34315 18 11C18 12.6569 19.3431 14 21 14Z" fill="#FF6127"/>
<path d="M9.8548 27.5115L4.48846 22.1452L0 30L2 32L9.8548 27.5115Z" fill="#FF6127"/>
</svg>
