<svg height="54" viewBox="0 0 65 54" fill="none" xmlns="http://www.w3.org/2000/svg"><path d="M28.3262 47.0898L21.1682 52.86C21.1682 52.86 12.9163 42.4204 10.0176 38.6875H10.0313C13.0599 38.4756 15.9587 38.3184 18.707 38.2021L28.3262 47.0898Z" stroke="#4B4B4B" stroke-width="2" stroke-linecap="round" stroke-linejoin="round"></path><path d="M44.5498 38.3526C44.5498 38.3526 44.4746 38.3457 44.3105 38.332C44.3858 38.3252 44.461 38.3184 44.5293 38.2979L44.5498 38.3526Z" fill="white" stroke="#4B4B4B" stroke-width="2" stroke-linecap="round" stroke-linejoin="round"></path><path d="M45.0071 38.1817C44.8499 38.2432 44.6926 38.2842 44.5285 38.2979C44.4602 38.3184 44.385 38.3252 44.3098 38.3321C44.2756 38.3389 44.2209 38.3389 44.173 38.3321C44.0158 38.3184 43.8175 38.3116 43.5714 38.291C43.5646 38.291 43.5646 38.2842 43.5646 38.2842C40.8572 37.7988 37.3569 33.8745 34.3761 28.1181C34.7179 28.0702 35.0597 27.9813 35.3947 27.8583C38.2046 26.8191 39.6403 23.6947 38.5943 20.8848C37.5551 18.075 34.4376 16.6461 31.6277 17.6853C31.2038 17.8425 30.8142 18.0408 30.4586 18.2869C28.2846 10.8623 28.1615 4.42896 30.1305 2.00878C30.1578 1.97459 30.1852 1.94041 30.2262 1.90622C30.3151 1.82418 30.3971 1.74214 30.4655 1.67378C30.4655 1.6601 30.4792 1.64644 30.4997 1.64644C30.6022 1.53705 30.7253 1.44816 30.8483 1.37979C30.9851 1.28408 31.1286 1.21572 31.2859 1.15419C34.8478 -0.158449 40.8026 7.05425 44.5901 17.2819C48.3776 27.5028 48.569 36.869 45.0071 38.1817Z" stroke="#4B4B4B" stroke-width="2" stroke-linecap="round" stroke-linejoin="round"></path><path d="M44.1739 38.332C43.9756 38.3457 43.7774 38.3252 43.5723 38.291C43.8184 38.3115 44.0167 38.3184 44.1739 38.332Z" fill="white" stroke="#4B4B4B" stroke-width="2" stroke-linecap="round" stroke-linejoin="round"></path><path d="M35.3951 27.8583C35.0601 27.9813 34.7182 28.0702 34.3764 28.1181C33.4124 26.2653 32.51 24.228 31.7033 22.0539C31.2315 20.7823 30.8145 19.5175 30.459 18.2869C30.8145 18.0408 31.2042 17.8425 31.6281 17.6853C34.4379 16.6461 37.5555 18.075 38.5946 20.8848C39.6406 23.6947 38.2049 26.8191 35.3951 27.8583Z" stroke="#4B4B4B" stroke-width="2" stroke-linecap="round" stroke-linejoin="round"></path><path d="M43.5666 38.2842C40.6268 38.1133 31.3153 37.6894 18.7084 38.2022C15.9601 38.3184 13.0613 38.4756 10.0327 38.6876H10.019C1.63041 39.2755 -2.32802 28.5761 4.41978 23.558C18.059 13.4397 27.5551 4.4905 30.1325 2.00879C28.1636 4.42897 28.2866 10.8623 30.4607 18.2869C30.8162 19.5175 31.2332 20.7823 31.705 22.0539C32.5117 24.228 33.4141 26.2653 34.3781 28.1181C37.3589 33.8746 40.8593 37.7988 43.5666 38.2842Z" stroke="#4B4B4B" stroke-width="2" stroke-linecap="round" stroke-linejoin="round"></path><path d="M50.8262 16.3519L58.8593 13.3779" stroke="#4B4B4B" stroke-width="2" stroke-linecap="round" stroke-linejoin="round"></path><path d="M53.6035 23.8452L63.0245 24.6178" stroke="#4B4B4B" stroke-width="2" stroke-linecap="round" stroke-linejoin="round"></path><path d="M48.0527 8.86597L54.698 2.14551" stroke="#4B4B4B" stroke-width="2" stroke-linecap="round" stroke-linejoin="round"></path></svg>