<svg height="57" viewBox="0 0 49 57" fill="none" xmlns="http://www.w3.org/2000/svg"><path d="M24.475 28.6508V55.7599L1 42.2087V15.0996L24.475 28.6508Z" stroke="black" stroke-width="2" stroke-linecap="round" stroke-linejoin="round"></path><path d="M47.9496 15.0996V42.2087L24.4746 55.7599V28.6508L32.6945 23.9052V37.7027L39.7297 33.6427V19.8452L47.9496 15.0996Z" stroke="black" stroke-width="2" stroke-linecap="round" stroke-linejoin="round"></path><path d="M32.6949 23.9052L24.475 28.6508L1 15.0996L9.21992 10.354L32.6949 23.9052Z" stroke="black" stroke-width="2" stroke-linecap="round" stroke-linejoin="round"></path><path d="M47.9506 15.0996L39.7307 19.8451L16.2557 6.29393L24.4756 1.54834L47.9506 15.0996Z" stroke="black" stroke-width="2" stroke-linecap="round" stroke-linejoin="round"></path><path d="M39.7309 19.8452L32.6957 23.9052L9.2207 10.354L16.2559 6.29395L39.7309 19.8452Z" stroke="black" stroke-width="2" stroke-linecap="round" stroke-linejoin="round"></path><path d="M39.7305 19.8451V33.6426L32.6953 37.7026V23.9051L39.7305 19.8451Z" stroke="black" stroke-width="2" stroke-linecap="round" stroke-linejoin="round"></path></svg>