<svg style="margin-left:8px" height="57" viewBox="0 0 61 57" fill="none" xmlns="http://www.w3.org/2000/svg"><path d="M51.7383 18.921V43.0037C51.7383 44.9167 50.1886 46.4738 48.2682 46.4738H35.3816L26.3728 55.49L17.3567 46.4738H4.47004C2.55707 46.4738 1 44.9167 1 43.0037V13.5084C1 11.588 2.55707 10.0383 4.47004 10.0383H41.0464C41.0464 15.0284 45.0948 19.0767 50.0848 19.0767C50.6483 19.0767 51.2044 19.0248 51.7383 18.921Z" stroke="#4B4B4B" stroke-width="2" stroke-linecap="round" stroke-linejoin="round"></path><path d="M10.2305 35.5151H42.5063" stroke="#4B4B4B" stroke-width="2" stroke-linecap="round" stroke-linejoin="round"></path><path d="M10.2305 28.3896H42.5063" stroke="#4B4B4B" stroke-width="2" stroke-linecap="round" stroke-linejoin="round"></path><path d="M10.2305 21.2715H23.6361" stroke="#4B4B4B" stroke-width="2" stroke-linecap="round" stroke-linejoin="round"></path><path d="M59.1237 10.0384C59.1237 14.465 55.9428 18.1426 51.7388 18.9211C51.2049 19.0249 50.6488 19.0768 50.0853 19.0768C45.0953 19.0768 41.0469 15.0285 41.0469 10.0384C41.0469 5.04839 45.0953 1 50.0853 1C55.0753 1 59.1237 5.04839 59.1237 10.0384Z" stroke="#4B4B4B" stroke-width="2" stroke-linecap="round" stroke-linejoin="round"></path></svg>