<svg fill="none" height="40px" class="Navigation_logo__7lpe8" viewBox="0 0 97 27" xmlns="http://www.w3.org/2000/svg"><path clip-rule="evenodd" d="m68.8581.92631c-2.2096 1.00462-2.5421 1.48203-1.1408 1.6371.8504.09397.9013.19265.9951 1.92968l.0985 1.83037-.7416-.49902c-1.0443-.70295-2.5949-.62025-3.8717.20644-3.5356 2.28993-4.3613 9.94072-1.4117 13.07832 1.6569 1.7627 3.4721 1.8444 5.2574.2371l.7334-.6604v.8195c0 .4505.1101.8834.2444.9621.1343.0786 1.1979-.3312 2.3632-.9104 1.8739-.9313 2.031-1.0776 1.3602-1.2637-.4169-.1156-.8937-.5526-1.0593-.9711-.1656-.4182-.3009-4.4871-.3009-9.04159 0-4.55448-.1102-8.28102324-.2445-8.28070998-.1343 0-1.161.41694898-2.2817.92630998zm12.0454.11841c-2.0189.99836-2.2921 1.46105-.8618 1.46105.8677 0 1.1213.53285 1.1213 2.35634v1.3655l-.8964-.44922c-2.2233-1.11458-4.4545-.11653-5.8516 2.61729-.823 1.61042-.912 2.10632-.912 5.07422 0 2.7187.117 3.5035.6744 4.5244 1.444 2.6455 3.9082 3.2312 5.877 1.3974l1.1086-1.0325v1.0012c0 1.2389.4384 1.2743 2.6184.2127 1.6656-.811 2.0887-1.4043 1.002-1.4043-.3394 0-.7061-.2231-.8149-.4956-.1089-.2726-.1979-4.3606-.1979-9.08455 0-6.67056-.0909-8.58551733-.4074-8.5736135-.224.0081448-1.3309.4717695-2.4597 1.0296835zm-73.6487 1.16721c-2.35014.89279-5.03667 3.33308-6.260309 5.68598-.882688 1.69787-.994491 2.22289-.994491 4.67039 0 3.662.778383 5.6816 3.05225 7.9198 3.27585 3.2247 7.36175 4.3277 11.63795 3.1414 8.8402-2.4519 11.5362-13.2572 4.7694-19.11543-2.4229-2.09758-4.0432-2.70593-7.5622-2.84001-2.39058-.09084-3.2498.00877-4.6426.53787zm24.9346 3.97934c-1.558.86303-2.0356 1.60733-.9791 1.52683.5205-.03979.5782.44263.6594 5.5021.0847 5.2913.0586 5.561-.5705 5.8846-1.3002.6685-.6375.9435 2.2742.9435 2.9884 0 3.5758-.2446 2.1188-.8827l-.8149-.3569v-4.8367c0-2.6602.0912-5.06477.2024-5.34357.1718-.42979 1.7093-1.42377 2.2028-1.42377.0857 0 .3863.22148.6682.49213.4254.40881.5121 1.39276.5121 5.80221v5.3097l-.8048.3525c-1.372.6005-.5796.8871 2.4538.8871 2.9704 0 3.5545-.2456 2.0995-.8827l-.8149-.3569.0104-4.9407c.0108-5.15624.1128-5.5804 1.5164-6.29902.9055-.46331.9335-.46111 1.5466.12781.4251.40881.5121 1.39119.5121 5.78431 0 4.9715-.0394 5.3123-.6519 5.6274-1.2742.6554-.6334.9398 2.1187.9398 2.752 0 3.3929-.2844 2.1187-.9398-.6076-.3123-.6526-.66-.6597-5.1014-.0043-2.6214-.1386-5.3085-.2986-5.97136-.7024-2.90799-3.093-3.58996-5.2658-1.50145-1.1174 1.07385-1.2801 1.14277-1.4538.61587-.34-1.02969-1.5098-1.82506-2.6839-1.82506-.8266 0-1.3918.26909-2.2031 1.0488l-1.0913 1.04879-.0985-.96797c-.1284-1.2615-.7145-1.32039-2.6233-.26345zm-21.9935-.23338c-1.43812.55604-1.34001 2.92365.1437 3.46591.898.32829 2.2374-.26252 2.5885-1.14184.321-.80413-.1787-1.90023-1.0382-2.27677-.4609-.20174-.8677-.35774-.9042-.34709-.0365.01096-.3918.14598-.7898.29979zm38.0455-.17699c0 .07831.3667.49464.8149.92537.8045.77312.8149.85081.8162 6.04463.001 4.6776.0721 5.3734.6418 6.2709 1.1259 1.7746 3.2316 1.7511 5.113-.057l1.089-1.0467v1.2218c0 .6894.1584 1.2217.3634 1.2217.7175 0 3.5481-1.675 3.5481-2.0998 0-.2393-.2556-.3925-.5705-.3418-.5247.0846-.5776-.4028-.6587-6.0948l-.0883-6.18684h-2.2749c-2.2093 0-2.9678.3731-1.6043.78879 1.0433.31828 1.2852 1.43191 1.2852 5.92095 0 3.9846-.0342 4.1983-.7992 4.9918-.9795 1.0159-2.5947 1.1318-3.1009.223-.1968-.3537-.3373-2.9631-.3373-6.2652v-5.65934h-2.1187c-1.1653 0-2.1188.06422-2.1188.14254zm37.1645.09241c.0033.12938.3368.5363.7413.90438.5156.46926 1.3445 2.58596 2.7748 7.08531l2.0399 6.4162-.5949 1.5293-.5946 1.529h-1.7383c-2.0571 0-2.6392.5316-2.1262 1.9413.2644.7271.5356.8953 1.5763.9777 1.0098.0799 1.4411-.0702 2.1934-.7628 1.2693-1.1684 1.8703-2.871 3.858-10.9274.9756-3.9537 1.9662-7.25356 2.3237-7.74068.3429-.46676.6236-.92474.6236-1.01809 0-.24372-3.1093-.20895-3.3661.03759-.1184.11371.0642.39502.4054.62495.5812.39095.5923.53379.1751 2.2207-.2455.99178-.6982 2.86033-1.0066 4.15253l-.5606 2.3495-1.2406-3.7591c-1.4339-4.34338-1.4818-4.7431-.5998-5.01219 1.4372-.43825.5043-.78315-2.1187-.78315-1.5238 0-2.768.10557-2.7651.23495zm-20.5039 1.66184c-.8207 1.2969-1.1513 4.60965-.7168 7.18435.5561 3.2961 1.9444 4.4652 3.7143 3.1272.8729-.66.8771-.6826.8765-4.7913-.0003-4.95419-.4453-6.25609-2.192-6.41836-.8844-.08208-1.1526.06108-1.682.89811zm12.1474.04261c-.7239 1.32947-.9906 5.72824-.4801 7.92044.413 1.774 1.3364 2.9838 2.2771 2.9838.3253 0 .9938-.3584 1.4857-.7963l.8941-.7963-.1131-4.1936c-.0991-3.66796-.1988-4.30388-.7973-5.07701-.4423-.5717-1.0404-.91816-1.693-.98081-.8566-.08239-1.0939.05952-1.5734.93978zm-62.1183 1.49049c-3.0689 2.58565-3.4861 2.62165-7.6763.66379-3.71134-1.7342-3.80358-1.64242-.76437.76186 1.08869.8615 1.98083 1.6437 1.98214 1.7386.0013.0946-1.1679.7205-2.59787 1.3905-1.43029.6701-2.55354 1.2634-2.49649 1.3182.05704.0549 1.48342-.1719 3.16926-.5043 1.68585-.3324 3.10147-.5695 3.1458-.5269s-.42211 1.5115-1.03621 3.2645c-.61443 1.753-1.07174 3.1871-1.01698 3.1871.05508 0 1.09782-1.2571 2.31689-2.7934l2.21653-2.7933 1.4919.5657c.8204.3111 2.4085.9239 3.5288 1.3618 1.1206.4376 2.0372.7549 2.0372.7051 0-.0501-1.1024-.978-2.4496-2.0618-1.3471-1.0842-2.3772-2.0403-2.2892-2.1249.0877-.0846 1.52-.3922 3.1827-.6838l3.0229-.5301-3.0151-.2415c-1.6581-.1328-3.0151-.2998-3.0151-.3706 0-.0711.5776-1.0428 1.2836-2.15959.706-1.11677 1.2559-2.02491 1.2224-2.0177-.0336.0072-1.0431.83985-2.2429 1.85074z" fill="currentColor" fill-rule="evenodd"></path></svg>